# xmcd
#
# Track frame offsets: 
#        150
#        9600
#        26956
#        45791
#        63866
#        79843
#        97486
#        132278
#        153459
#        169368
#        184121
#        200867
#        220116
#        237448
#        256061
#        271247
#        286087
#        303982
#        318882
#
# Disc length: 4460 seconds
#
# Revision: 0
# Processed by: cddbd v1.5.2PL0 Copyright (c) Steve Scherf et al.
# Submitted via: ExactAudioCopy v0.95b4
#
DISCID=0d116a13
DTITLE=EKO DU 9'4 - EKONOMIK MUZIK
DYEAR=2007
DGENRE=Rap
TTITLE0=Intro
TTITLE1=Pariah
TTITLE2=Lucidité
TTITLE3=Terroristes
TTITLE4=Pression Sanguine
TTITLE5=No Futur
TTITLE6=Trop Dangereux
TTITLE7=La Vie Te Mène
TTITLE8=L'arche des Paumés
TTITLE9=Racines
TTITLE10=J'rêve
TTITLE11=Descente aux Enfers
TTITLE12=Propagande
TTITLE13=Mon Hip Hop
TTITLE14=Banlieusard
TTITLE15=Pyromane
TTITLE16=Ca Sent La Douille
TTITLE17=Septième Ciel
TTITLE18=Hip Hop Passionné
EXTD=Pour plus d'information, ou pour soutenir l'artiste :\n\nhttp://w
EXTD=ww.myspace.com/ekodu94\n\nou\n\nhttp://eko94officiel.skyblog.com\n
EXTT0=
EXTT1=
EXTT2=
EXTT3=Featuring: feat, Kalix\n
EXTT4=
EXTT5=
EXTT6=Featuring: feat, V2M, 3eme Relève, Sultan, Nil Ness, Latouba Fed
EXTT6=ez\n
EXTT7=
EXTT8=
EXTT9=
EXTT10=
EXTT11=
EXTT12=
EXTT13=Featuring: feat, Limsa\n
EXTT14=
EXTT15=
EXTT16=Featuring: feat, OCH and Kickeur\n
EXTT17=
EXTT18=
PLAYORDER=
